<svg id="svg" version="1.1" xmlns="http://www.w3.org/2000/svg" xmlns:xlink="http://www.w3.org/1999/xlink" width="400" height="150" viewBox="0, 0, 400,150"><g id="svgg"><path id="path0" d="M75.382 30.167 C 75.333 30.351,75.154 30.500,74.981 30.500 C 74.778 30.500,74.667 30.618,74.667 30.833 C 74.667 31.056,74.556 31.167,74.333 31.167 C 74.150 31.167,74.000 31.262,74.000 31.380 C 74.000 31.497,73.850 31.721,73.667 31.878 C 73.483 32.035,73.333 32.352,73.333 32.582 C 73.333 32.842,73.239 33.000,73.083 33.000 C 72.903 33.000,72.833 33.185,72.833 33.667 C 72.833 34.222,72.778 34.333,72.500 34.333 C 72.231 34.333,72.167 34.444,72.167 34.905 C 72.167 35.331,72.081 35.505,71.833 35.583 C 71.585 35.662,71.500 35.836,71.500 36.261 C 71.500 36.722,71.435 36.833,71.167 36.833 C 70.889 36.833,70.833 36.944,70.833 37.500 C 70.833 38.056,70.778 38.167,70.500 38.167 C 70.278 38.167,70.167 38.278,70.167 38.500 C 70.167 38.683,70.062 38.833,69.934 38.833 C 69.666 38.833,69.500 39.188,69.500 39.764 C 69.500 39.996,69.402 40.167,69.269 40.167 C 69.136 40.167,68.990 40.416,68.928 40.750 C 68.862 41.099,68.721 41.333,68.576 41.333 C 68.404 41.333,68.333 41.528,68.333 42.000 C 68.333 42.556,68.278 42.667,68.000 42.667 C 67.729 42.667,67.667 42.778,67.667 43.266 C 67.667 43.724,67.589 43.885,67.333 43.952 C 67.083 44.017,67.000 44.179,67.000 44.603 C 67.000 45.056,66.934 45.167,66.667 45.167 C 66.389 45.167,66.333 45.278,66.333 45.833 C 66.333 46.389,66.278 46.500,66.000 46.500 C 65.722 46.500,65.667 46.611,65.667 47.167 C 65.667 47.722,65.611 47.833,65.333 47.833 C 65.111 47.833,65.000 47.944,65.000 48.167 C 65.000 48.352,64.889 48.500,64.750 48.500 C 64.577 48.500,64.500 48.674,64.500 49.064 C 64.500 49.488,64.417 49.649,64.167 49.715 C 63.911 49.782,63.833 49.942,63.833 50.401 C 63.833 50.889,63.771 51.000,63.500 51.000 C 63.229 51.000,63.167 51.111,63.167 51.599 C 63.167 52.058,63.089 52.218,62.833 52.285 C 62.586 52.350,62.500 52.512,62.500 52.917 C 62.500 53.321,62.414 53.484,62.167 53.548 C 61.911 53.615,61.833 53.776,61.833 54.234 C 61.833 54.722,61.771 54.833,61.500 54.833 C 61.222 54.833,61.167 54.944,61.167 55.500 C 61.167 55.999,61.100 56.167,60.901 56.167 C 60.755 56.167,60.596 56.317,60.548 56.500 C 60.500 56.683,60.357 56.833,60.231 56.833 C 60.080 56.833,60.000 57.028,60.000 57.397 C 60.000 57.821,59.917 57.983,59.667 58.048 C 59.411 58.115,59.333 58.276,59.333 58.734 C 59.333 59.222,59.271 59.333,59.000 59.333 C 58.722 59.333,58.667 59.444,58.667 60.000 C 58.667 60.556,58.611 60.667,58.333 60.667 C 58.066 60.667,58.000 60.778,58.000 61.231 C 58.000 61.654,57.917 61.816,57.667 61.882 C 57.414 61.948,57.333 62.109,57.333 62.548 C 57.333 62.988,57.253 63.149,57.000 63.215 C 56.745 63.282,56.667 63.442,56.667 63.901 C 56.667 64.322,56.593 64.500,56.417 64.500 C 56.242 64.500,56.167 64.676,56.167 65.083 C 56.167 65.556,56.103 65.667,55.833 65.667 C 55.618 65.667,55.500 65.778,55.500 65.981 C 55.500 66.154,55.351 66.333,55.167 66.382 C 54.914 66.448,54.833 66.609,54.833 67.048 C 54.833 67.488,54.753 67.649,54.500 67.715 C 54.245 67.782,54.167 67.942,54.167 68.401 C 54.167 68.889,54.105 69.000,53.833 69.000 C 53.566 69.000,53.500 69.111,53.500 69.564 C 53.500 69.988,53.417 70.149,53.167 70.215 C 52.911 70.282,52.833 70.442,52.833 70.901 C 52.833 71.320,52.759 71.500,52.585 71.500 C 52.425 71.500,52.300 71.735,52.231 72.167 C 52.166 72.569,52.033 72.833,51.895 72.833 C 51.745 72.833,51.667 73.033,51.667 73.417 C 51.667 73.889,51.603 74.000,51.333 74.000 C 51.056 74.000,51.000 74.111,51.000 74.667 C 51.000 75.222,50.944 75.333,50.667 75.333 C 50.451 75.333,50.333 75.444,50.333 75.647 C 50.333 75.821,50.184 76.000,50.000 76.048 C 49.747 76.114,49.667 76.276,49.667 76.715 C 49.667 77.154,49.586 77.316,49.333 77.382 C 49.091 77.445,49.000 77.609,49.000 77.984 C 49.000 78.314,48.916 78.500,48.768 78.500 C 48.499 78.500,48.333 78.855,48.333 79.430 C 48.333 79.677,48.237 79.833,48.083 79.833 C 47.903 79.833,47.833 80.019,47.833 80.500 C 47.833 81.056,47.778 81.167,47.500 81.167 C 47.230 81.167,47.167 81.278,47.167 81.750 C 47.167 82.222,47.103 82.333,46.833 82.333 C 46.556 82.333,46.500 82.444,46.500 83.000 C 46.500 83.556,46.444 83.667,46.167 83.667 C 45.889 83.667,45.833 83.778,45.833 84.333 C 45.833 84.889,45.778 85.000,45.500 85.000 C 45.278 85.000,45.167 85.111,45.167 85.333 C 45.167 85.517,45.062 85.667,44.934 85.667 C 44.683 85.667,44.500 86.016,44.500 86.496 C 44.500 86.662,44.397 86.837,44.271 86.886 C 44.145 86.934,43.992 87.242,43.930 87.570 C 43.863 87.930,43.722 88.167,43.576 88.167 C 43.404 88.167,43.333 88.361,43.333 88.833 C 43.333 89.389,43.278 89.500,43.000 89.500 C 42.730 89.500,42.667 89.611,42.667 90.083 C 42.667 90.556,42.603 90.667,42.333 90.667 C 42.056 90.667,42.000 90.778,42.000 91.333 C 42.000 91.889,41.944 92.000,41.667 92.000 C 41.389 92.000,41.333 92.111,41.333 92.667 C 41.333 93.222,41.278 93.333,41.000 93.333 C 40.732 93.333,40.667 93.444,40.667 93.897 C 40.667 94.321,40.584 94.483,40.333 94.548 C 40.150 94.596,40.000 94.747,40.000 94.883 C 40.000 95.020,39.887 95.174,39.750 95.227 C 39.593 95.287,39.500 95.542,39.500 95.911 C 39.500 96.389,39.437 96.500,39.167 96.500 C 38.889 96.500,38.833 96.611,38.833 97.167 C 38.833 97.722,38.778 97.833,38.500 97.833 C 38.232 97.833,38.167 97.944,38.167 98.397 C 38.167 98.821,38.084 98.983,37.833 99.048 C 37.578 99.115,37.500 99.276,37.500 99.734 C 37.500 100.222,37.438 100.333,37.167 100.333 C 36.889 100.333,36.833 100.444,36.833 101.000 C 36.833 101.556,36.778 101.667,36.500 101.667 C 36.230 101.667,36.167 101.778,36.167 102.250 C 36.167 102.637,36.089 102.833,35.934 102.833 C 35.666 102.833,35.500 103.188,35.500 103.764 C 35.500 104.011,35.403 104.167,35.250 104.167 C 35.112 104.167,35.000 104.308,35.000 104.481 C 35.000 104.654,34.851 104.833,34.667 104.882 C 34.411 104.948,34.333 105.109,34.333 105.568 C 34.333 106.056,34.271 106.167,34.000 106.167 C 33.732 106.167,33.667 106.278,33.667 106.731 C 33.667 107.154,33.584 107.316,33.333 107.382 C 33.081 107.448,33.000 107.609,33.000 108.048 C 33.000 108.488,32.919 108.649,32.667 108.715 C 32.414 108.781,32.333 108.942,32.333 109.382 C 32.333 109.821,32.253 109.982,32.000 110.048 C 31.757 110.112,31.667 110.276,31.667 110.651 C 31.667 110.998,31.585 111.167,31.417 111.167 C 31.236 111.167,31.167 111.352,31.167 111.833 C 31.167 112.389,31.111 112.500,30.833 112.500 C 30.514 112.500,30.500 112.611,30.500 115.083 C 30.500 117.556,30.514 117.667,30.833 117.667 C 31.103 117.667,31.167 117.778,31.167 118.250 C 31.167 118.806,31.194 118.833,31.750 118.833 C 32.222 118.833,32.333 118.897,32.333 119.167 C 32.333 119.444,32.444 119.500,33.000 119.500 C 33.556 119.500,33.667 119.556,33.667 119.833 C 33.667 120.358,46.315 120.358,46.452 119.833 C 46.518 119.581,46.679 119.500,47.118 119.500 C 47.558 119.500,47.719 119.419,47.785 119.167 C 47.833 118.983,47.976 118.833,48.103 118.833 C 48.230 118.833,48.333 118.730,48.333 118.603 C 48.333 118.476,48.483 118.333,48.667 118.285 C 48.922 118.218,49.000 118.058,49.000 117.599 C 49.000 117.111,49.062 117.000,49.333 117.000 C 49.611 117.000,49.667 116.889,49.667 116.333 C 49.667 115.778,49.722 115.667,50.000 115.667 C 50.268 115.667,50.333 115.556,50.333 115.103 C 50.333 114.679,50.416 114.517,50.667 114.452 C 50.919 114.386,51.000 114.224,51.000 113.785 C 51.000 113.346,51.081 113.184,51.333 113.118 C 51.589 113.052,51.667 112.891,51.667 112.432 C 51.667 112.011,51.741 111.833,51.917 111.833 C 52.056 111.833,52.167 111.685,52.167 111.500 C 52.167 111.278,52.278 111.167,52.500 111.167 C 52.771 111.167,52.833 111.056,52.833 110.568 C 52.833 110.109,52.911 109.948,53.167 109.882 C 53.414 109.817,53.500 109.654,53.500 109.250 C 53.500 108.846,53.586 108.683,53.833 108.618 C 54.089 108.552,54.167 108.391,54.167 107.932 C 54.167 107.444,54.229 107.333,54.500 107.333 C 54.768 107.333,54.833 107.222,54.833 106.769 C 54.833 106.346,54.916 106.184,55.167 106.118 C 55.419 106.052,55.500 105.891,55.500 105.452 C 55.500 105.012,55.581 104.851,55.833 104.785 C 56.089 104.718,56.167 104.558,56.167 104.099 C 56.167 103.678,56.241 103.500,56.417 103.500 C 56.597 103.500,56.667 103.315,56.667 102.833 C 56.667 102.278,56.722 102.167,57.000 102.167 C 57.222 102.167,57.333 102.056,57.333 101.833 C 57.333 101.611,57.444 101.500,57.667 101.500 C 57.934 101.500,58.000 101.389,58.000 100.936 C 58.000 100.512,58.083 100.351,58.333 100.285 C 58.589 100.218,58.667 100.058,58.667 99.599 C 58.667 99.111,58.729 99.000,59.000 99.000 C 59.265 99.000,59.333 98.889,59.333 98.457 C 59.333 98.094,59.444 97.844,59.667 97.705 C 59.879 97.573,60.000 97.317,60.000 96.999 C 60.000 96.667,60.083 96.500,60.250 96.500 C 60.431 96.500,60.500 96.315,60.500 95.833 C 60.500 95.278,60.556 95.167,60.833 95.167 C 61.111 95.167,61.167 95.056,61.167 94.500 C 61.167 93.944,61.222 93.833,61.500 93.833 C 61.770 93.833,61.833 93.722,61.833 93.250 C 61.833 92.778,61.897 92.667,62.167 92.667 C 62.444 92.667,62.500 92.556,62.500 92.000 C 62.500 91.444,62.556 91.333,62.833 91.333 C 63.056 91.333,63.167 91.222,63.167 91.000 C 63.167 90.817,63.271 90.667,63.399 90.667 C 63.668 90.667,63.833 90.312,63.833 89.736 C 63.833 89.495,63.930 89.333,64.076 89.333 C 64.221 89.333,64.362 89.099,64.428 88.750 C 64.490 88.416,64.636 88.167,64.769 88.167 C 64.927 88.167,65.000 87.958,65.000 87.500 C 65.000 86.944,65.056 86.833,65.333 86.833 C 65.611 86.833,65.667 86.722,65.667 86.167 C 65.667 85.611,65.722 85.500,66.000 85.500 C 66.270 85.500,66.333 85.389,66.333 84.917 C 66.333 84.444,66.397 84.333,66.667 84.333 C 66.944 84.333,67.000 84.222,67.000 83.667 C 67.000 83.111,67.056 83.000,67.333 83.000 C 67.611 83.000,67.667 82.889,67.667 82.333 C 67.667 81.778,67.722 81.667,68.000 81.667 C 68.222 81.667,68.333 81.556,68.333 81.333 C 68.333 81.148,68.444 81.000,68.583 81.000 C 68.756 81.000,68.833 80.826,68.833 80.436 C 68.833 80.012,68.916 79.851,69.167 79.785 C 69.422 79.718,69.500 79.558,69.500 79.099 C 69.500 78.611,69.562 78.500,69.833 78.500 C 70.111 78.500,70.167 78.389,70.167 77.833 C 70.167 77.278,70.222 77.167,70.500 77.167 C 70.770 77.167,70.833 77.056,70.833 76.583 C 70.833 76.111,70.897 76.000,71.167 76.000 C 71.443 76.000,71.500 75.889,71.500 75.353 C 71.500 74.846,71.572 74.687,71.833 74.618 C 72.089 74.552,72.167 74.391,72.167 73.932 C 72.167 73.444,72.229 73.333,72.500 73.333 C 72.770 73.333,72.833 73.222,72.833 72.750 C 72.833 72.343,72.909 72.167,73.083 72.167 C 73.264 72.167,73.333 71.981,73.333 71.500 C 73.333 70.944,73.389 70.833,73.667 70.833 C 73.882 70.833,74.000 70.722,74.000 70.519 C 74.000 70.346,74.149 70.167,74.333 70.118 C 74.586 70.052,74.667 69.891,74.667 69.452 C 74.667 69.012,74.747 68.851,75.000 68.785 C 75.239 68.722,75.333 68.558,75.333 68.202 C 75.333 67.846,75.428 67.681,75.667 67.618 C 75.922 67.552,76.000 67.391,76.000 66.932 C 76.000 66.531,76.077 66.333,76.232 66.333 C 76.501 66.333,76.667 65.978,76.667 65.403 C 76.667 65.156,76.763 65.000,76.917 65.000 C 77.091 65.000,77.167 64.824,77.167 64.417 C 77.167 63.944,77.230 63.833,77.500 63.833 C 77.778 63.833,77.833 63.722,77.833 63.167 C 77.833 62.611,77.889 62.500,78.167 62.500 C 78.444 62.500,78.500 62.389,78.500 61.833 C 78.500 61.278,78.556 61.167,78.833 61.167 C 79.049 61.167,79.167 61.056,79.167 60.853 C 79.167 60.679,79.316 60.500,79.500 60.452 C 79.725 60.393,79.833 60.224,79.833 59.932 C 79.833 59.695,79.983 59.350,80.167 59.167 C 80.350 58.983,80.500 58.646,80.500 58.417 C 80.500 58.172,80.596 58.000,80.732 58.000 C 81.001 58.000,81.167 57.645,81.167 57.070 C 81.167 56.823,81.263 56.667,81.417 56.667 C 81.591 56.667,81.667 56.491,81.667 56.083 C 81.667 55.611,81.730 55.500,82.000 55.500 C 82.278 55.500,82.333 55.389,82.333 54.833 C 82.333 54.278,82.389 54.167,82.667 54.167 C 82.944 54.167,83.000 54.056,83.000 53.500 C 83.000 52.944,83.056 52.833,83.333 52.833 C 83.601 52.833,83.667 52.722,83.667 52.269 C 83.667 51.846,83.750 51.684,84.000 51.618 C 84.255 51.552,84.333 51.391,84.333 50.932 C 84.333 50.444,84.395 50.333,84.667 50.333 C 84.889 50.333,85.000 50.222,85.000 50.000 C 85.000 49.815,85.111 49.667,85.250 49.667 C 85.431 49.667,85.500 49.481,85.500 49.000 C 85.500 48.444,85.556 48.333,85.833 48.333 C 86.101 48.333,86.167 48.222,86.167 47.769 C 86.167 47.346,86.250 47.184,86.500 47.118 C 86.755 47.052,86.833 46.891,86.833 46.432 C 86.833 45.944,86.895 45.833,87.167 45.833 C 87.462 45.833,87.500 45.722,87.500 44.853 C 87.500 44.012,87.548 43.860,87.833 43.785 C 88.107 43.714,88.167 43.558,88.167 42.917 C 88.167 42.276,88.107 42.120,87.833 42.048 C 87.551 41.975,87.500 41.821,87.500 41.048 C 87.500 40.276,87.449 40.122,87.167 40.048 C 86.916 39.983,86.833 39.821,86.833 39.397 C 86.833 38.944,86.768 38.833,86.500 38.833 C 86.229 38.833,86.167 38.722,86.167 38.234 C 86.167 37.776,86.089 37.615,85.833 37.548 C 85.649 37.500,85.500 37.321,85.500 37.147 C 85.500 36.975,85.388 36.833,85.250 36.833 C 85.076 36.833,85.000 36.659,85.000 36.261 C 85.000 35.836,84.915 35.662,84.667 35.583 C 84.419 35.505,84.333 35.331,84.333 34.905 C 84.333 34.444,84.269 34.333,84.000 34.333 C 83.729 34.333,83.667 34.222,83.667 33.734 C 83.667 33.276,83.589 33.115,83.333 33.048 C 83.083 32.983,83.000 32.821,83.000 32.397 C 83.000 31.944,82.934 31.833,82.667 31.833 C 82.444 31.833,82.333 31.722,82.333 31.500 C 82.333 31.278,82.222 31.167,82.000 31.167 C 81.778 31.167,81.667 31.056,81.667 30.833 C 81.667 30.611,81.556 30.500,81.333 30.500 C 81.111 30.500,81.000 30.389,81.000 30.167 C 81.000 29.847,80.889 29.833,78.234 29.833 C 75.609 29.833,75.464 29.850,75.382 30.167 M100.333 30.167 C 100.333 30.435,100.222 30.500,99.768 30.500 C 99.190 30.500,99.000 30.710,99.000 31.347 C 99.000 31.523,98.885 31.667,98.745 31.667 C 98.604 31.667,98.441 31.798,98.382 31.958 C 98.323 32.119,98.176 32.310,98.054 32.383 C 97.933 32.457,97.833 32.775,97.833 33.092 C 97.833 33.556,97.769 33.667,97.500 33.667 C 97.222 33.667,97.167 33.778,97.167 34.333 C 97.167 34.889,97.111 35.000,96.833 35.000 C 96.566 35.000,96.500 35.111,96.500 35.564 C 96.500 35.988,96.417 36.149,96.167 36.215 C 95.911 36.282,95.833 36.442,95.833 36.901 C 95.833 37.389,95.771 37.500,95.500 37.500 C 95.222 37.500,95.167 37.611,95.167 38.167 C 95.167 38.722,95.111 38.833,94.833 38.833 C 94.563 38.833,94.500 38.944,94.500 39.417 C 94.500 39.824,94.425 40.000,94.250 40.000 C 94.112 40.000,94.000 40.110,94.000 40.244 C 94.000 40.378,93.850 40.569,93.667 40.667 C 93.435 40.791,93.333 41.016,93.333 41.403 C 93.333 41.821,93.250 41.983,93.000 42.048 C 92.745 42.115,92.667 42.276,92.667 42.734 C 92.667 43.222,92.605 43.333,92.333 43.333 C 92.066 43.333,92.000 43.444,92.000 43.897 C 92.000 44.321,91.917 44.483,91.667 44.548 C 91.414 44.614,91.333 44.776,91.333 45.215 C 91.333 45.654,91.253 45.816,91.000 45.882 C 90.745 45.948,90.667 46.109,90.667 46.568 C 90.667 47.056,90.605 47.167,90.333 47.167 C 90.063 47.167,90.000 47.278,90.000 47.750 C 90.000 48.157,89.925 48.333,89.750 48.333 C 89.569 48.333,89.500 48.519,89.500 49.000 C 89.500 49.556,89.444 49.667,89.167 49.667 C 88.951 49.667,88.833 49.778,88.833 49.981 C 88.833 50.154,88.684 50.333,88.500 50.382 C 88.245 50.448,88.167 50.609,88.167 51.068 C 88.167 51.556,88.105 51.667,87.833 51.667 C 87.566 51.667,87.500 51.778,87.500 52.231 C 87.500 52.654,87.417 52.816,87.167 52.882 C 86.914 52.948,86.833 53.109,86.833 53.548 C 86.833 53.988,86.753 54.149,86.500 54.215 C 86.245 54.282,86.167 54.442,86.167 54.901 C 86.167 55.314,86.091 55.500,85.924 55.500 C 85.779 55.500,85.638 55.734,85.572 56.083 C 85.510 56.417,85.364 56.667,85.231 56.667 C 85.073 56.667,85.000 56.876,85.000 57.333 C 85.000 57.889,84.944 58.000,84.667 58.000 C 84.451 58.000,84.333 58.111,84.333 58.314 C 84.333 58.488,84.184 58.667,84.000 58.715 C 83.747 58.781,83.667 58.942,83.667 59.382 C 83.667 59.821,83.586 59.982,83.333 60.048 C 83.093 60.111,83.000 60.276,83.000 60.640 C 83.000 60.998,82.903 61.175,82.667 61.250 C 82.419 61.329,82.333 61.502,82.333 61.928 C 82.333 62.306,82.255 62.500,82.101 62.500 C 81.832 62.500,81.667 62.855,81.667 63.430 C 81.667 63.677,81.570 63.833,81.417 63.833 C 81.244 63.833,81.167 64.007,81.167 64.397 C 81.167 64.821,81.084 64.983,80.833 65.048 C 80.578 65.115,80.500 65.276,80.500 65.734 C 80.500 66.222,80.438 66.333,80.167 66.333 C 79.889 66.333,79.833 66.444,79.833 67.000 C 79.833 67.556,79.778 67.667,79.500 67.667 C 79.285 67.667,79.167 67.778,79.167 67.981 C 79.167 68.154,79.018 68.333,78.833 68.382 C 78.598 68.443,78.500 68.609,78.500 68.947 C 78.500 69.220,78.356 69.549,78.167 69.711 C 77.983 69.868,77.833 70.185,77.833 70.415 C 77.833 70.664,77.738 70.833,77.598 70.833 C 77.453 70.833,77.319 71.090,77.250 71.500 C 77.181 71.910,77.047 72.167,76.902 72.167 C 76.746 72.167,76.667 72.356,76.667 72.731 C 76.667 73.154,76.584 73.316,76.333 73.382 C 76.078 73.448,76.000 73.609,76.000 74.068 C 76.000 74.556,75.938 74.667,75.667 74.667 C 75.389 74.667,75.333 74.778,75.333 75.333 C 75.333 75.889,75.278 76.000,75.000 76.000 C 74.731 76.000,74.667 76.111,74.667 76.572 C 74.667 76.998,74.581 77.171,74.333 77.250 C 74.150 77.308,74.000 77.466,74.000 77.600 C 74.000 77.734,73.890 77.886,73.755 77.938 C 73.620 77.990,73.462 78.282,73.405 78.588 C 73.347 78.894,73.195 79.184,73.067 79.233 C 72.928 79.287,72.833 79.560,72.833 79.911 C 72.833 80.389,72.770 80.500,72.500 80.500 C 72.231 80.500,72.167 80.611,72.167 81.072 C 72.167 81.498,72.081 81.671,71.833 81.750 C 71.585 81.829,71.500 82.002,71.500 82.428 C 71.500 82.889,71.435 83.000,71.167 83.000 C 70.889 83.000,70.833 83.111,70.833 83.667 C 70.833 84.222,70.778 84.333,70.500 84.333 C 70.231 84.333,70.167 84.444,70.167 84.905 C 70.167 85.331,70.081 85.505,69.833 85.583 C 69.585 85.662,69.500 85.836,69.500 86.261 C 69.500 86.659,69.424 86.833,69.250 86.833 C 69.112 86.833,69.000 86.943,69.000 87.077 C 69.000 87.212,68.850 87.402,68.667 87.500 C 68.432 87.626,68.333 87.849,68.333 88.256 C 68.333 88.722,68.269 88.833,68.000 88.833 C 67.731 88.833,67.667 88.944,67.667 89.405 C 67.667 89.831,67.581 90.005,67.333 90.083 C 67.088 90.161,67.000 90.336,67.000 90.742 C 67.000 91.154,66.915 91.317,66.667 91.382 C 66.411 91.448,66.333 91.609,66.333 92.068 C 66.333 92.556,66.271 92.667,66.000 92.667 C 65.724 92.667,65.667 92.778,65.667 93.314 C 65.667 93.821,65.594 93.980,65.333 94.048 C 65.091 94.112,65.000 94.276,65.000 94.651 C 65.000 94.998,64.918 95.167,64.750 95.167 C 64.569 95.167,64.500 95.352,64.500 95.833 C 64.500 96.389,64.444 96.500,64.167 96.500 C 63.944 96.500,63.833 96.611,63.833 96.833 C 63.833 97.056,63.722 97.167,63.500 97.167 C 63.222 97.167,63.167 97.278,63.167 97.833 C 63.167 98.389,63.111 98.500,62.833 98.500 C 62.566 98.500,62.500 98.611,62.500 99.064 C 62.500 99.488,62.417 99.649,62.167 99.715 C 61.914 99.781,61.833 99.942,61.833 100.382 C 61.833 100.821,61.753 100.982,61.500 101.048 C 61.245 101.115,61.167 101.276,61.167 101.734 C 61.167 102.147,61.091 102.333,60.924 102.333 C 60.779 102.333,60.638 102.567,60.572 102.917 C 60.510 103.251,60.364 103.500,60.231 103.500 C 60.073 103.500,60.000 103.709,60.000 104.167 C 60.000 104.722,59.944 104.833,59.667 104.833 C 59.389 104.833,59.333 104.944,59.333 105.500 C 59.333 106.056,59.278 106.167,59.000 106.167 C 58.785 106.167,58.667 106.278,58.667 106.481 C 58.667 106.654,58.518 106.833,58.333 106.882 C 58.091 106.945,58.000 107.109,58.000 107.484 C 58.000 107.814,57.916 108.000,57.768 108.000 C 57.499 108.000,57.333 108.355,57.333 108.930 C 57.333 109.164,57.236 109.333,57.101 109.333 C 56.832 109.333,56.667 109.688,56.667 110.264 C 56.667 110.511,56.570 110.667,56.417 110.667 C 56.242 110.667,56.167 110.843,56.167 111.250 C 56.167 111.722,56.103 111.833,55.833 111.833 C 55.556 111.833,55.500 111.944,55.500 112.500 C 55.500 113.056,55.444 113.167,55.167 113.167 C 54.853 113.167,54.833 113.278,54.833 115.016 C 54.833 116.724,54.859 116.871,55.167 116.952 C 55.415 117.017,55.500 117.179,55.500 117.592 C 55.500 117.998,55.588 118.172,55.833 118.250 C 56.017 118.308,56.167 118.463,56.167 118.595 C 56.167 118.726,56.274 118.833,56.405 118.833 C 56.537 118.833,56.692 118.983,56.750 119.167 C 56.828 119.412,57.002 119.500,57.408 119.500 C 57.821 119.500,57.983 119.585,58.048 119.833 C 58.185 120.358,70.833 120.358,70.833 119.833 C 70.833 119.556,70.944 119.500,71.500 119.500 C 72.056 119.500,72.167 119.444,72.167 119.167 C 72.167 118.897,72.278 118.833,72.750 118.833 C 73.306 118.833,73.333 118.806,73.333 118.250 C 73.333 117.778,73.397 117.667,73.667 117.667 C 73.944 117.667,74.000 117.556,74.000 117.000 C 74.000 116.444,74.056 116.333,74.333 116.333 C 74.611 116.333,74.667 116.222,74.667 115.667 C 74.667 115.111,74.722 115.000,75.000 115.000 C 75.270 115.000,75.333 114.889,75.333 114.417 C 75.333 113.944,75.397 113.833,75.667 113.833 C 75.883 113.833,76.000 113.722,76.000 113.518 C 76.000 113.344,76.108 113.161,76.241 113.110 C 76.373 113.059,76.532 112.751,76.593 112.425 C 76.657 112.085,76.802 111.833,76.935 111.833 C 77.094 111.833,77.167 111.624,77.167 111.167 C 77.167 110.611,77.222 110.500,77.500 110.500 C 77.768 110.500,77.833 110.389,77.833 109.936 C 77.833 109.512,77.916 109.351,78.167 109.285 C 78.422 109.218,78.500 109.058,78.500 108.599 C 78.500 108.111,78.562 108.000,78.833 108.000 C 79.111 108.000,79.167 107.889,79.167 107.333 C 79.167 106.778,79.222 106.667,79.500 106.667 C 79.768 106.667,79.833 106.556,79.833 106.103 C 79.833 105.679,79.916 105.517,80.167 105.452 C 80.422 105.385,80.500 105.224,80.500 104.766 C 80.500 104.278,80.562 104.167,80.833 104.167 C 81.056 104.167,81.167 104.056,81.167 103.833 C 81.167 103.648,81.278 103.500,81.417 103.500 C 81.597 103.500,81.667 103.315,81.667 102.833 C 81.667 102.278,81.722 102.167,82.000 102.167 C 82.268 102.167,82.333 102.056,82.333 101.603 C 82.333 101.179,82.416 101.017,82.667 100.952 C 82.919 100.886,83.000 100.724,83.000 100.285 C 83.000 99.846,83.081 99.684,83.333 99.618 C 83.589 99.552,83.667 99.391,83.667 98.932 C 83.667 98.444,83.729 98.333,84.000 98.333 C 84.268 98.333,84.333 98.222,84.333 97.769 C 84.333 97.346,84.416 97.184,84.667 97.118 C 84.922 97.052,85.000 96.891,85.000 96.432 C 85.000 96.011,85.074 95.833,85.250 95.833 C 85.431 95.833,85.500 95.648,85.500 95.167 C 85.500 94.611,85.556 94.500,85.833 94.500 C 86.103 94.500,86.167 94.389,86.167 93.917 C 86.167 93.444,86.230 93.333,86.500 93.333 C 86.718 93.333,86.833 93.222,86.833 93.011 C 86.833 92.834,86.983 92.642,87.167 92.583 C 87.412 92.506,87.500 92.331,87.500 91.925 C 87.500 91.512,87.585 91.350,87.833 91.285 C 88.086 91.219,88.167 91.058,88.167 90.618 C 88.167 90.179,88.247 90.018,88.500 89.952 C 88.735 89.890,88.833 89.724,88.833 89.389 C 88.833 89.094,88.960 88.834,89.167 88.705 C 89.379 88.573,89.500 88.317,89.500 87.999 C 89.500 87.667,89.583 87.500,89.750 87.500 C 89.931 87.500,90.000 87.315,90.000 86.833 C 90.000 86.278,90.056 86.167,90.333 86.167 C 90.603 86.167,90.667 86.056,90.667 85.583 C 90.667 85.111,90.730 85.000,91.000 85.000 C 91.278 85.000,91.333 84.889,91.333 84.333 C 91.333 83.778,91.389 83.667,91.667 83.667 C 91.889 83.667,92.000 83.556,92.000 83.333 C 92.000 83.150,92.104 83.000,92.232 83.000 C 92.501 83.000,92.667 82.645,92.667 82.070 C 92.667 81.828,92.764 81.667,92.909 81.667 C 93.053 81.667,93.195 81.435,93.259 81.095 C 93.318 80.780,93.471 80.483,93.600 80.433 C 93.739 80.380,93.833 80.106,93.833 79.755 C 93.833 79.278,93.896 79.167,94.167 79.167 C 94.444 79.167,94.500 79.056,94.500 78.500 C 94.500 77.944,94.556 77.833,94.833 77.833 C 95.101 77.833,95.167 77.722,95.167 77.269 C 95.167 76.846,95.250 76.684,95.500 76.618 C 95.755 76.552,95.833 76.391,95.833 75.932 C 95.833 75.444,95.895 75.333,96.167 75.333 C 96.444 75.333,96.500 75.222,96.500 74.667 C 96.500 74.111,96.556 74.000,96.833 74.000 C 97.103 74.000,97.167 73.889,97.167 73.417 C 97.167 73.005,97.241 72.833,97.421 72.833 C 97.561 72.833,97.746 72.646,97.833 72.417 C 97.920 72.187,98.069 72.000,98.163 72.000 C 98.256 72.000,98.333 71.746,98.333 71.436 C 98.333 71.012,98.416 70.851,98.667 70.785 C 98.922 70.718,99.000 70.558,99.000 70.099 C 99.000 69.611,99.062 69.500,99.333 69.500 C 99.602 69.500,99.667 69.389,99.667 68.928 C 99.667 68.502,99.752 68.329,100.000 68.250 C 100.248 68.171,100.333 67.998,100.333 67.572 C 100.333 67.111,100.398 67.000,100.667 67.000 C 100.944 67.000,101.000 66.889,101.000 66.333 C 101.000 65.778,101.056 65.667,101.333 65.667 C 101.603 65.667,101.667 65.556,101.667 65.083 C 101.667 64.676,101.742 64.500,101.917 64.500 C 102.097 64.500,102.167 64.315,102.167 63.833 C 102.167 63.278,102.222 63.167,102.500 63.167 C 102.715 63.167,102.833 63.056,102.833 62.853 C 102.833 62.679,102.982 62.500,103.167 62.452 C 103.419 62.386,103.500 62.224,103.500 61.785 C 103.500 61.346,103.581 61.184,103.833 61.118 C 104.074 61.055,104.167 60.891,104.167 60.527 C 104.167 60.169,104.263 59.992,104.500 59.917 C 104.745 59.839,104.833 59.664,104.833 59.258 C 104.833 58.846,104.918 58.683,105.167 58.618 C 105.422 58.552,105.500 58.391,105.500 57.932 C 105.500 57.444,105.562 57.333,105.833 57.333 C 106.103 57.333,106.167 57.222,106.167 56.750 C 106.167 56.343,106.242 56.167,106.417 56.167 C 106.597 56.167,106.667 55.981,106.667 55.500 C 106.667 54.944,106.722 54.833,107.000 54.833 C 107.278 54.833,107.333 54.722,107.333 54.167 C 107.333 53.611,107.389 53.500,107.667 53.500 C 107.944 53.500,108.000 53.389,108.000 52.833 C 108.000 52.278,108.056 52.167,108.333 52.167 C 108.549 52.167,108.667 52.056,108.667 51.853 C 108.667 51.679,108.816 51.500,109.000 51.452 C 109.239 51.389,109.333 51.224,109.333 50.867 C 109.333 50.587,109.439 50.329,109.574 50.277 C 109.707 50.226,109.865 49.918,109.926 49.592 C 109.990 49.251,110.135 49.000,110.269 49.000 C 110.420 49.000,110.500 48.806,110.500 48.436 C 110.500 48.012,110.583 47.851,110.833 47.785 C 111.089 47.718,111.167 47.558,111.167 47.099 C 111.167 46.611,111.229 46.500,111.500 46.500 C 111.778 46.500,111.833 46.389,111.833 45.833 C 111.833 45.278,111.889 45.167,112.167 45.167 C 112.484 45.167,112.500 45.056,112.500 42.917 C 112.500 40.778,112.484 40.667,112.167 40.667 C 111.897 40.667,111.833 40.556,111.833 40.083 C 111.833 39.611,111.770 39.500,111.500 39.500 C 111.222 39.500,111.167 39.389,111.167 38.833 C 111.167 38.278,111.111 38.167,110.833 38.167 C 110.556 38.167,110.500 38.056,110.500 37.500 C 110.500 37.042,110.427 36.833,110.269 36.833 C 110.136 36.833,109.990 36.584,109.928 36.250 C 109.862 35.901,109.721 35.667,109.576 35.667 C 109.442 35.667,109.333 35.517,109.333 35.333 C 109.333 35.111,109.222 35.000,109.000 35.000 C 108.722 35.000,108.667 34.889,108.667 34.333 C 108.667 33.778,108.611 33.667,108.333 33.667 C 108.062 33.667,108.000 33.556,108.000 33.068 C 108.000 32.609,107.922 32.448,107.667 32.382 C 107.416 32.316,107.333 32.154,107.333 31.731 C 107.333 31.278,107.268 31.167,107.000 31.167 C 106.778 31.167,106.667 31.056,106.667 30.833 C 106.667 30.566,106.556 30.500,106.103 30.500 C 105.679 30.500,105.517 30.417,105.452 30.167 C 105.369 29.852,105.224 29.833,102.849 29.833 C 100.444 29.833,100.333 29.848,100.333 30.167 M225.708 43.951 C 225.502 43.991,225.333 44.130,225.333 44.262 C 225.333 44.448,225.047 44.500,224.014 44.500 C 222.550 44.500,222.167 44.590,222.167 44.934 C 222.167 45.113,221.872 45.167,220.901 45.167 C 219.776 45.167,219.626 45.204,219.548 45.500 C 219.469 45.803,219.321 45.833,217.897 45.833 L 216.333 45.833 216.333 74.000 L 216.333 102.167 222.083 102.167 L 227.833 102.167 227.833 73.101 C 227.833 46.751,227.809 44.026,227.570 43.934 C 227.286 43.825,226.315 43.834,225.708 43.951 M336.698 43.952 C 336.486 43.993,336.272 44.133,336.222 44.263 C 336.155 44.437,335.815 44.501,334.941 44.502 C 333.527 44.505,333.000 44.623,333.000 44.936 C 333.000 45.112,332.703 45.167,331.750 45.167 C 330.611 45.167,330.500 45.196,330.500 45.500 C 330.500 45.810,330.389 45.833,328.936 45.833 C 327.455 45.833,327.367 45.853,327.272 46.208 C 327.216 46.415,327.170 59.090,327.169 74.375 L 327.167 102.167 333.000 102.167 L 338.833 102.167 338.833 93.833 C 338.833 85.611,338.838 85.500,339.167 85.500 C 339.389 85.500,339.500 85.611,339.500 85.833 C 339.500 86.019,339.611 86.167,339.750 86.167 C 339.887 86.167,340.000 86.286,340.000 86.432 C 340.000 86.578,340.150 86.737,340.333 86.785 C 340.518 86.833,340.667 87.012,340.667 87.186 C 340.667 87.389,340.785 87.500,341.000 87.500 C 341.222 87.500,341.333 87.611,341.333 87.833 C 341.333 88.056,341.444 88.167,341.667 88.167 C 341.889 88.167,342.000 88.278,342.000 88.500 C 342.000 88.722,342.111 88.833,342.333 88.833 C 342.556 88.833,342.667 88.944,342.667 89.167 C 342.667 89.389,342.778 89.500,343.000 89.500 C 343.270 89.500,343.333 89.611,343.333 90.083 C 343.333 90.556,343.397 90.667,343.667 90.667 C 343.889 90.667,344.000 90.778,344.000 91.000 C 344.000 91.194,344.111 91.333,344.266 91.333 C 344.412 91.333,344.570 91.483,344.618 91.667 C 344.666 91.850,344.801 92.000,344.917 92.000 C 345.033 92.000,345.167 92.150,345.215 92.333 C 345.263 92.517,345.413 92.667,345.548 92.667 C 345.684 92.667,345.834 92.817,345.882 93.000 C 345.930 93.183,346.088 93.333,346.234 93.333 C 346.380 93.333,346.500 93.446,346.500 93.583 C 346.500 93.722,346.648 93.833,346.833 93.833 C 347.056 93.833,347.167 93.944,347.167 94.167 C 347.167 94.389,347.278 94.500,347.500 94.500 C 347.722 94.500,347.833 94.611,347.833 94.833 C 347.833 95.017,347.937 95.167,348.064 95.167 C 348.191 95.167,348.334 95.317,348.382 95.500 C 348.430 95.683,348.588 95.833,348.734 95.833 C 348.889 95.833,349.000 95.973,349.000 96.167 C 349.000 96.389,349.111 96.500,349.333 96.500 C 349.556 96.500,349.667 96.611,349.667 96.833 C 349.667 97.056,349.778 97.167,350.000 97.167 C 350.222 97.167,350.333 97.278,350.333 97.500 C 350.333 97.722,350.444 97.833,350.667 97.833 C 350.852 97.833,351.000 97.944,351.000 98.083 C 351.000 98.222,351.148 98.333,351.333 98.333 C 351.611 98.333,351.667 98.444,351.667 99.000 C 351.667 99.556,351.722 99.667,352.000 99.667 C 352.183 99.667,352.333 99.745,352.333 99.841 C 352.333 100.076,353.748 101.500,353.982 101.500 C 354.083 101.500,354.167 101.650,354.167 101.833 C 354.167 102.162,354.278 102.167,361.833 102.167 L 369.500 102.167 369.500 101.318 C 369.500 100.609,369.445 100.454,369.167 100.382 C 368.982 100.333,368.833 100.154,368.833 99.981 C 368.833 99.808,368.730 99.667,368.603 99.667 C 368.476 99.667,368.333 99.517,368.285 99.333 C 368.237 99.150,368.087 99.000,367.952 99.000 C 367.816 99.000,367.666 98.850,367.618 98.667 C 367.570 98.483,367.412 98.333,367.266 98.333 C 367.120 98.333,367.000 98.221,367.000 98.083 C 367.000 97.944,366.852 97.833,366.667 97.833 C 366.444 97.833,366.333 97.722,366.333 97.500 C 366.333 97.278,366.222 97.167,366.000 97.167 C 365.778 97.167,365.667 97.056,365.667 96.833 C 365.667 96.611,365.556 96.500,365.333 96.500 C 365.111 96.500,365.000 96.389,365.000 96.167 C 365.000 95.983,364.896 95.833,364.769 95.833 C 364.643 95.833,364.500 95.683,364.452 95.500 C 364.404 95.317,364.245 95.167,364.099 95.167 C 363.948 95.167,363.833 95.028,363.833 94.847 C 363.833 94.363,363.656 94.000,363.418 94.000 C 363.301 94.000,363.166 93.850,363.118 93.667 C 363.070 93.483,362.920 93.333,362.785 93.333 C 362.650 93.333,362.500 93.183,362.452 93.000 C 362.404 92.817,362.245 92.667,362.099 92.667 C 361.944 92.667,361.833 92.527,361.833 92.333 C 361.833 92.111,361.722 92.000,361.500 92.000 C 361.278 92.000,361.167 91.889,361.167 91.667 C 361.167 91.444,361.056 91.333,360.833 91.333 C 360.611 91.333,360.500 91.222,360.500 91.000 C 360.500 90.817,360.396 90.667,360.269 90.667 C 360.143 90.667,360.000 90.517,359.952 90.333 C 359.904 90.150,359.745 90.000,359.599 90.000 C 359.453 90.000,359.333 89.888,359.333 89.750 C 359.333 89.611,359.185 89.500,359.000 89.500 C 358.778 89.500,358.667 89.389,358.667 89.167 C 358.667 88.944,358.556 88.833,358.333 88.833 C 358.111 88.833,358.000 88.722,358.000 88.500 C 358.000 88.278,357.889 88.167,357.667 88.167 C 357.395 88.167,357.333 88.056,357.333 87.568 C 357.333 87.109,357.255 86.948,357.000 86.882 C 356.817 86.834,356.667 86.696,356.667 86.575 C 356.667 86.454,356.517 86.308,356.333 86.250 C 356.150 86.192,356.000 86.037,356.000 85.905 C 356.000 85.774,355.887 85.667,355.750 85.667 C 355.611 85.667,355.500 85.519,355.500 85.333 C 355.500 85.111,355.389 85.000,355.167 85.000 C 354.944 85.000,354.833 84.889,354.833 84.667 C 354.833 84.444,354.722 84.333,354.500 84.333 C 354.278 84.333,354.167 84.222,354.167 84.000 C 354.167 83.778,354.056 83.667,353.833 83.667 C 353.611 83.667,353.500 83.556,353.500 83.333 C 353.500 83.111,353.389 83.000,353.167 83.000 C 352.944 83.000,352.833 82.889,352.833 82.667 C 352.833 82.444,352.722 82.333,352.500 82.333 C 352.278 82.333,352.167 82.222,352.167 82.000 C 352.167 81.815,352.056 81.667,351.917 81.667 C 351.779 81.667,351.667 81.554,351.667 81.417 C 351.667 81.278,351.519 81.167,351.333 81.167 C 351.111 81.167,351.000 81.056,351.000 80.833 C 351.000 80.611,350.889 80.500,350.667 80.500 C 350.389 80.500,350.333 80.389,350.333 79.833 C 350.333 79.278,350.389 79.167,350.667 79.167 C 350.882 79.167,351.000 79.056,351.000 78.853 C 351.000 78.679,351.149 78.500,351.333 78.452 C 351.517 78.404,351.667 78.245,351.667 78.099 C 351.667 77.953,351.779 77.833,351.917 77.833 C 352.056 77.833,352.167 77.685,352.167 77.500 C 352.167 77.278,352.278 77.167,352.500 77.167 C 352.685 77.167,352.833 77.056,352.833 76.917 C 352.833 76.778,352.981 76.667,353.167 76.667 C 353.389 76.667,353.500 76.556,353.500 76.333 C 353.500 76.111,353.611 76.000,353.833 76.000 C 354.056 76.000,354.167 75.889,354.167 75.667 C 354.167 75.444,354.278 75.333,354.500 75.333 C 354.722 75.333,354.833 75.222,354.833 75.000 C 354.833 74.778,354.944 74.667,355.167 74.667 C 355.389 74.667,355.500 74.556,355.500 74.333 C 355.500 74.111,355.611 74.000,355.833 74.000 C 356.056 74.000,356.167 73.889,356.167 73.667 C 356.167 73.481,356.278 73.333,356.417 73.333 C 356.554 73.333,356.667 73.221,356.667 73.083 C 356.667 72.944,356.815 72.833,357.000 72.833 C 357.222 72.833,357.333 72.722,357.333 72.500 C 357.333 72.278,357.444 72.167,357.667 72.167 C 357.889 72.167,358.000 72.056,358.000 71.833 C 358.000 71.611,358.111 71.500,358.333 71.500 C 358.556 71.500,358.667 71.389,358.667 71.167 C 358.667 70.944,358.778 70.833,359.000 70.833 C 359.222 70.833,359.333 70.722,359.333 70.500 C 359.333 70.278,359.444 70.167,359.667 70.167 C 359.889 70.167,360.000 70.056,360.000 69.833 C 360.000 69.563,360.111 69.500,360.583 69.500 C 361.056 69.500,361.167 69.437,361.167 69.167 C 361.167 68.944,361.278 68.833,361.500 68.833 C 361.722 68.833,361.833 68.722,361.833 68.500 C 361.833 68.278,361.944 68.167,362.167 68.167 C 362.350 68.167,362.500 68.095,362.500 68.008 C 362.500 67.812,363.296 67.000,363.488 67.000 C 363.565 67.000,363.667 66.850,363.715 66.667 C 363.763 66.483,363.922 66.333,364.068 66.333 C 364.222 66.333,364.333 66.194,364.333 66.000 C 364.333 65.778,364.444 65.667,364.667 65.667 C 364.889 65.667,365.000 65.556,365.000 65.333 C 365.000 65.111,365.111 65.000,365.333 65.000 C 365.517 65.000,365.667 64.896,365.667 64.769 C 365.667 64.643,365.817 64.500,366.000 64.452 C 366.183 64.404,366.333 64.254,366.333 64.118 C 366.333 63.983,366.483 63.833,366.667 63.785 C 366.850 63.737,367.000 63.578,367.000 63.432 C 367.000 63.286,367.120 63.167,367.266 63.167 C 367.412 63.167,367.570 63.017,367.618 62.833 C 367.666 62.650,367.816 62.500,367.952 62.500 C 368.087 62.500,368.237 62.350,368.285 62.167 C 368.333 61.983,368.476 61.833,368.603 61.833 C 369.027 61.833,368.896 60.722,368.458 60.605 C 367.969 60.474,355.698 60.474,355.208 60.605 C 355.002 60.660,354.833 60.801,354.833 60.917 C 354.833 61.033,354.683 61.167,354.500 61.215 C 354.317 61.263,354.167 61.422,354.167 61.568 C 354.167 61.722,354.027 61.833,353.833 61.833 C 353.611 61.833,353.500 61.944,353.500 62.167 C 353.500 62.389,353.389 62.500,353.167 62.500 C 352.944 62.500,352.833 62.611,352.833 62.833 C 352.833 63.017,352.726 63.167,352.595 63.167 C 352.463 63.167,352.308 63.317,352.250 63.500 C 352.192 63.683,352.037 63.833,351.905 63.833 C 351.774 63.833,351.667 63.983,351.667 64.167 C 351.667 64.389,351.556 64.500,351.333 64.500 C 351.148 64.500,351.000 64.611,351.000 64.750 C 351.000 64.887,350.880 65.000,350.734 65.000 C 350.588 65.000,350.430 65.150,350.382 65.333 C 350.333 65.518,350.154 65.667,349.981 65.667 C 349.778 65.667,349.667 65.785,349.667 66.000 C 349.667 66.222,349.556 66.333,349.333 66.333 C 349.111 66.333,349.000 66.444,349.000 66.667 C 349.000 66.861,348.889 67.000,348.734 67.000 C 348.588 67.000,348.430 67.150,348.382 67.333 C 348.334 67.517,348.191 67.667,348.064 67.667 C 347.937 67.667,347.833 67.817,347.833 68.000 C 347.833 68.222,347.722 68.333,347.500 68.333 C 347.317 68.333,347.167 68.441,347.167 68.572 C 347.167 68.703,347.017 68.858,346.833 68.917 C 346.650 68.975,346.500 69.130,346.500 69.261 C 346.500 69.393,346.350 69.500,346.167 69.500 C 345.944 69.500,345.833 69.611,345.833 69.833 C 345.833 70.056,345.722 70.167,345.500 70.167 C 345.278 70.167,345.167 70.278,345.167 70.500 C 345.167 70.722,345.056 70.833,344.833 70.833 C 344.611 70.833,344.500 70.944,344.500 71.167 C 344.500 71.361,344.389 71.500,344.234 71.500 C 344.088 71.500,343.930 71.650,343.882 71.833 C 343.834 72.017,343.691 72.167,343.564 72.167 C 343.437 72.167,343.333 72.317,343.333 72.500 C 343.333 72.722,343.222 72.833,343.000 72.833 C 342.815 72.833,342.667 72.944,342.667 73.083 C 342.667 73.222,342.519 73.333,342.333 73.333 C 342.111 73.333,342.000 73.444,342.000 73.667 C 342.000 73.889,341.889 74.000,341.667 74.000 C 341.444 74.000,341.333 74.111,341.333 74.333 C 341.333 74.556,341.222 74.667,341.000 74.667 C 340.778 74.667,340.667 74.778,340.667 75.000 C 340.667 75.222,340.556 75.333,340.333 75.333 C 340.111 75.333,340.000 75.444,340.000 75.667 C 340.000 75.852,339.889 76.000,339.750 76.000 C 339.611 76.000,339.500 76.148,339.500 76.333 C 339.500 76.556,339.389 76.667,339.167 76.667 C 338.836 76.667,338.833 76.556,338.833 60.351 C 338.833 45.627,338.808 44.026,338.570 43.934 C 338.284 43.825,337.317 43.834,336.698 43.952 M176.113 46.609 C 176.051 46.671,176.000 47.076,176.000 47.508 C 176.000 48.154,175.941 48.310,175.667 48.382 C 175.414 48.448,175.333 48.609,175.333 49.048 C 175.333 49.488,175.253 49.649,175.000 49.715 C 174.717 49.789,174.667 49.942,174.667 50.734 C 174.667 51.556,174.627 51.667,174.333 51.667 C 174.063 51.667,174.000 51.778,174.000 52.250 C 174.000 52.637,173.922 52.833,173.768 52.833 C 173.502 52.833,173.333 53.187,173.333 53.746 C 173.333 53.958,173.221 54.174,173.083 54.227 C 172.903 54.296,172.833 54.579,172.833 55.245 C 172.833 56.056,172.793 56.167,172.500 56.167 C 172.231 56.167,172.167 56.278,172.167 56.739 C 172.167 57.164,172.081 57.338,171.833 57.417 C 171.554 57.505,171.500 57.669,171.500 58.428 C 171.500 59.222,171.459 59.333,171.167 59.333 C 170.889 59.333,170.833 59.444,170.833 60.000 C 170.833 60.556,170.778 60.667,170.500 60.667 C 170.207 60.667,170.167 60.778,170.167 61.583 C 170.167 62.389,170.126 62.500,169.833 62.500 C 169.556 62.500,169.500 62.611,169.500 63.167 C 169.500 63.630,169.428 63.833,169.265 63.833 C 169.120 63.833,168.986 64.090,168.917 64.500 C 168.847 64.910,168.713 65.167,168.569 65.167 C 168.395 65.167,168.333 65.405,168.333 66.083 C 168.333 66.889,168.293 67.000,168.000 67.000 C 167.722 67.000,167.667 67.111,167.667 67.667 C 167.667 68.222,167.611 68.333,167.333 68.333 C 167.040 68.333,167.000 68.444,167.000 69.250 C 167.000 70.056,166.960 70.167,166.667 70.167 C 166.391 70.167,166.333 70.278,166.333 70.814 C 166.333 71.321,166.261 71.480,166.000 71.548 C 165.723 71.621,165.667 71.776,165.667 72.465 C 165.667 73.154,165.610 73.309,165.333 73.382 C 165.078 73.448,165.000 73.609,165.000 74.068 C 165.000 74.489,164.926 74.667,164.750 74.667 C 164.556 74.667,164.500 74.889,164.500 75.667 C 164.500 76.556,164.463 76.667,164.167 76.667 C 163.899 76.667,163.833 76.778,163.833 77.231 C 163.833 77.654,163.750 77.816,163.500 77.882 C 163.247 77.948,163.167 78.109,163.167 78.548 C 163.167 78.988,163.086 79.149,162.833 79.215 C 162.550 79.289,162.500 79.442,162.500 80.234 C 162.500 81.056,162.460 81.167,162.167 81.167 C 161.907 81.167,161.833 81.278,161.833 81.667 C 161.833 81.944,161.685 82.315,161.500 82.500 C 161.265 82.735,161.167 83.056,161.167 83.583 C 161.167 84.113,161.099 84.333,160.934 84.333 C 160.666 84.333,160.500 84.688,160.500 85.264 C 160.500 85.511,160.403 85.667,160.250 85.667 C 160.058 85.667,160.000 85.880,160.000 86.583 C 160.000 87.389,159.960 87.500,159.667 87.500 C 159.389 87.500,159.333 87.611,159.333 88.167 C 159.333 88.722,159.278 88.833,159.000 88.833 C 158.724 88.833,158.667 88.944,158.667 89.481 C 158.667 89.988,158.594 90.147,158.333 90.215 C 158.055 90.288,158.000 90.442,158.000 91.151 C 158.000 91.889,157.956 92.000,157.667 92.000 C 157.389 92.000,157.333 92.111,157.333 92.667 C 157.333 93.121,157.260 93.333,157.104 93.333 C 156.876 93.333,156.667 94.020,156.667 94.771 C 156.667 95.012,156.569 95.167,156.417 95.167 C 156.236 95.167,156.167 95.352,156.167 95.833 C 156.167 96.389,156.111 96.500,155.833 96.500 C 155.541 96.500,155.500 96.611,155.500 97.397 C 155.500 98.154,155.448 98.308,155.167 98.382 C 154.914 98.448,154.833 98.609,154.833 99.048 C 154.833 99.488,154.753 99.649,154.500 99.715 C 154.206 99.792,154.167 99.942,154.167 100.984 L 154.167 102.167 160.583 102.167 C 166.042 102.167,167.000 102.131,167.000 101.928 C 167.000 101.797,167.150 101.642,167.333 101.583 C 167.571 101.508,167.667 101.331,167.667 100.965 C 167.667 100.684,167.789 100.364,167.938 100.255 C 168.105 100.133,168.242 99.721,168.293 99.195 C 168.349 98.616,168.451 98.333,168.605 98.333 C 168.754 98.333,168.833 98.135,168.833 97.761 C 168.833 97.336,168.919 97.162,169.167 97.083 C 169.446 96.995,169.500 96.831,169.500 96.072 C 169.500 95.278,169.541 95.167,169.833 95.167 C 170.109 95.167,170.167 95.056,170.167 94.519 C 170.167 94.012,170.239 93.853,170.500 93.785 C 170.778 93.712,170.833 93.558,170.833 92.849 C 170.833 92.111,170.877 92.000,171.167 92.000 C 171.443 92.000,171.500 91.889,171.500 91.353 C 171.500 90.846,171.572 90.687,171.833 90.618 C 172.110 90.546,172.167 90.391,172.167 89.702 C 172.167 89.012,172.223 88.857,172.500 88.785 C 172.683 88.737,172.833 88.578,172.833 88.432 C 172.833 88.192,173.865 88.167,183.667 88.167 L 194.500 88.167 194.500 89.016 C 194.500 89.724,194.555 89.879,194.833 89.952 C 195.094 90.020,195.167 90.179,195.167 90.686 C 195.167 91.222,195.224 91.333,195.500 91.333 C 195.794 91.333,195.833 91.444,195.833 92.266 C 195.833 93.058,195.883 93.211,196.167 93.285 C 196.444 93.357,196.500 93.512,196.500 94.202 C 196.500 94.891,196.556 95.046,196.833 95.118 C 197.094 95.187,197.167 95.346,197.167 95.853 C 197.167 96.389,197.224 96.500,197.500 96.500 C 197.793 96.500,197.833 96.611,197.833 97.417 C 197.833 98.120,197.891 98.333,198.083 98.333 C 198.259 98.333,198.333 98.511,198.333 98.932 C 198.333 99.391,198.411 99.552,198.667 99.618 C 198.949 99.692,199.000 99.846,199.000 100.618 C 199.000 101.391,199.051 101.545,199.333 101.618 C 199.517 101.666,199.667 101.809,199.667 101.936 C 199.667 102.129,200.781 102.167,206.417 102.167 L 213.167 102.167 213.167 100.984 C 213.167 99.942,213.127 99.792,212.833 99.715 C 212.581 99.649,212.500 99.488,212.500 99.048 C 212.500 98.609,212.419 98.448,212.167 98.382 C 211.885 98.308,211.833 98.154,211.833 97.397 C 211.833 96.611,211.792 96.500,211.500 96.500 C 211.222 96.500,211.167 96.389,211.167 95.833 C 211.167 95.278,211.111 95.167,210.833 95.167 C 210.540 95.167,210.500 95.056,210.500 94.250 C 210.500 93.546,210.442 93.333,210.250 93.333 C 210.074 93.333,210.000 93.156,210.000 92.734 C 210.000 92.276,209.922 92.115,209.667 92.048 C 209.414 91.982,209.333 91.821,209.333 91.382 C 209.333 90.942,209.253 90.781,209.000 90.715 C 208.719 90.641,208.667 90.488,208.667 89.731 C 208.667 88.944,208.625 88.833,208.333 88.833 C 208.056 88.833,208.000 88.722,208.000 88.167 C 208.000 87.611,207.944 87.500,207.667 87.500 C 207.374 87.500,207.333 87.389,207.333 86.583 C 207.333 85.778,207.293 85.667,207.000 85.667 C 206.722 85.667,206.667 85.556,206.667 85.000 C 206.667 84.546,206.594 84.333,206.438 84.333 C 206.284 84.333,206.182 84.051,206.126 83.472 C 206.076 82.946,205.938 82.533,205.772 82.412 C 205.620 82.301,205.500 81.981,205.500 81.690 C 205.500 81.278,205.429 81.167,205.167 81.167 C 204.873 81.167,204.833 81.056,204.833 80.234 C 204.833 79.442,204.783 79.289,204.500 79.215 C 204.247 79.149,204.167 78.988,204.167 78.548 C 204.167 78.109,204.086 77.948,203.833 77.882 C 203.583 77.816,203.500 77.654,203.500 77.231 C 203.500 76.778,203.434 76.667,203.167 76.667 C 202.870 76.667,202.833 76.556,202.833 75.667 C 202.833 74.778,202.796 74.667,202.500 74.667 C 202.222 74.667,202.167 74.556,202.167 74.000 C 202.167 73.519,202.097 73.333,201.917 73.333 C 201.765 73.333,201.667 73.178,201.667 72.938 C 201.667 72.187,201.458 71.500,201.229 71.500 C 201.077 71.500,201.000 71.298,201.000 70.901 C 201.000 70.442,200.922 70.282,200.667 70.215 C 200.390 70.143,200.333 69.988,200.333 69.298 C 200.333 68.609,200.277 68.454,200.000 68.382 C 199.739 68.313,199.667 68.154,199.667 67.647 C 199.667 67.111,199.609 67.000,199.333 67.000 C 199.056 67.000,199.000 66.889,199.000 66.333 C 199.000 65.778,198.944 65.667,198.667 65.667 C 198.374 65.667,198.333 65.556,198.333 64.750 C 198.333 64.046,198.275 63.833,198.083 63.833 C 197.907 63.833,197.833 63.656,197.833 63.234 C 197.833 62.776,197.755 62.615,197.500 62.548 C 197.223 62.476,197.167 62.321,197.167 61.632 C 197.167 60.942,197.110 60.787,196.833 60.715 C 196.572 60.647,196.500 60.488,196.500 59.981 C 196.500 59.444,196.443 59.333,196.167 59.333 C 195.874 59.333,195.833 59.222,195.833 58.428 C 195.833 57.669,195.779 57.505,195.500 57.417 C 195.252 57.338,195.167 57.164,195.167 56.739 C 195.167 56.278,195.102 56.167,194.833 56.167 C 194.556 56.167,194.500 56.056,194.500 55.500 C 194.500 54.944,194.444 54.833,194.167 54.833 C 193.874 54.833,193.833 54.722,193.833 53.911 C 193.833 53.246,193.764 52.963,193.583 52.894 C 193.429 52.834,193.333 52.581,193.333 52.232 C 193.333 51.778,193.268 51.667,193.000 51.667 C 192.706 51.667,192.667 51.556,192.667 50.734 C 192.667 49.942,192.617 49.789,192.333 49.715 C 192.081 49.649,192.000 49.488,192.000 49.048 C 192.000 48.614,191.919 48.448,191.675 48.384 C 191.414 48.316,191.340 48.127,191.300 47.441 L 191.250 46.583 183.738 46.540 C 179.606 46.516,176.175 46.547,176.113 46.609 M297.833 60.250 C 297.833 60.427,297.652 60.501,297.208 60.502 C 296.338 60.505,295.833 60.665,295.833 60.936 C 295.833 61.090,295.633 61.167,295.234 61.167 C 294.776 61.167,294.615 61.245,294.548 61.500 C 294.483 61.750,294.321 61.833,293.897 61.833 C 293.444 61.833,293.333 61.899,293.333 62.167 C 293.333 62.389,293.222 62.500,293.000 62.500 C 292.708 62.500,292.667 62.389,292.667 61.601 C 292.667 60.935,292.598 60.676,292.403 60.601 C 292.059 60.469,281.108 60.469,280.764 60.601 C 280.525 60.693,280.500 62.683,280.500 81.434 L 280.500 102.167 286.250 102.167 L 292.000 102.167 292.000 88.083 C 292.000 74.111,292.003 74.000,292.333 74.000 C 292.556 74.000,292.667 73.889,292.667 73.667 C 292.667 73.481,292.778 73.333,292.917 73.333 C 293.054 73.333,293.167 73.221,293.167 73.083 C 293.167 72.946,293.286 72.833,293.432 72.833 C 293.578 72.833,293.737 72.683,293.785 72.500 C 293.833 72.316,294.012 72.167,294.186 72.167 C 294.389 72.167,294.500 72.049,294.500 71.833 C 294.500 71.562,294.611 71.500,295.099 71.500 C 295.558 71.500,295.718 71.422,295.785 71.167 C 295.859 70.885,296.012 70.833,296.769 70.833 C 297.556 70.833,297.667 70.792,297.667 70.500 C 297.667 70.181,297.778 70.167,300.250 70.167 C 302.722 70.167,302.833 70.181,302.833 70.500 C 302.833 70.778,302.944 70.833,303.500 70.833 C 304.056 70.833,304.167 70.889,304.167 71.167 C 304.167 71.389,304.278 71.500,304.500 71.500 C 304.683 71.500,304.833 71.604,304.833 71.732 C 304.833 72.001,305.188 72.167,305.764 72.167 C 306.113 72.167,306.167 72.244,306.167 72.750 C 306.167 73.136,306.245 73.333,306.397 73.333 C 306.524 73.333,306.667 73.483,306.715 73.667 C 306.763 73.850,306.922 74.000,307.068 74.000 C 307.279 74.000,307.333 74.190,307.333 74.932 C 307.333 75.724,307.383 75.878,307.667 75.952 C 307.996 76.038,308.000 76.179,308.000 89.103 L 308.000 102.167 314.083 102.167 L 320.167 102.167 320.167 86.833 C 320.167 71.611,320.164 71.500,319.833 71.500 C 319.537 71.500,319.500 71.389,319.500 70.500 C 319.500 69.611,319.463 69.500,319.167 69.500 C 318.897 69.500,318.833 69.389,318.833 68.917 C 318.833 68.509,318.758 68.333,318.583 68.333 C 318.407 68.333,318.333 68.156,318.333 67.734 C 318.333 67.276,318.255 67.115,318.000 67.048 C 317.766 66.987,317.667 66.821,317.667 66.490 C 317.667 66.226,317.534 65.923,317.364 65.801 C 317.198 65.681,317.012 65.452,316.953 65.292 C 316.893 65.131,316.729 65.000,316.589 65.000 C 316.448 65.000,316.333 64.887,316.333 64.750 C 316.333 64.611,316.185 64.500,316.000 64.500 C 315.778 64.500,315.667 64.389,315.667 64.167 C 315.667 63.944,315.556 63.833,315.333 63.833 C 315.111 63.833,315.000 63.722,315.000 63.500 C 315.000 63.278,314.889 63.167,314.667 63.167 C 314.444 63.167,314.333 63.056,314.333 62.833 C 314.333 62.566,314.222 62.500,313.769 62.500 C 313.346 62.500,313.184 62.417,313.118 62.167 C 313.052 61.911,312.891 61.833,312.432 61.833 C 311.944 61.833,311.833 61.771,311.833 61.500 C 311.833 61.222,311.722 61.167,311.167 61.167 C 310.710 61.167,310.500 61.094,310.500 60.936 C 310.500 60.674,310.000 60.506,309.208 60.502 C 308.839 60.501,308.667 60.420,308.667 60.250 C 308.667 60.033,307.954 60.000,303.250 60.000 C 298.546 60.000,297.833 60.033,297.833 60.250 M183.667 61.186 C 183.667 61.722,183.724 61.833,184.000 61.833 C 184.294 61.833,184.333 61.944,184.333 62.766 C 184.333 63.558,184.383 63.711,184.667 63.785 C 184.917 63.851,185.000 64.012,185.000 64.436 C 185.000 64.803,185.080 65.000,185.228 65.000 C 185.384 65.000,185.493 65.319,185.570 66.000 C 185.650 66.711,185.753 67.000,185.925 67.000 C 186.095 67.000,186.167 67.194,186.167 67.653 C 186.167 68.467,186.301 68.833,186.601 68.833 C 186.761 68.833,186.833 69.041,186.833 69.500 C 186.833 70.056,186.889 70.167,187.167 70.167 C 187.459 70.167,187.500 70.278,187.500 71.064 C 187.500 71.821,187.552 71.975,187.833 72.048 C 188.089 72.115,188.167 72.276,188.167 72.734 C 188.167 73.222,188.229 73.333,188.500 73.333 C 188.796 73.333,188.833 73.444,188.833 74.333 C 188.833 75.222,188.870 75.333,189.167 75.333 C 189.444 75.333,189.500 75.444,189.500 76.000 C 189.500 76.481,189.569 76.667,189.750 76.667 C 189.925 76.667,190.000 76.843,190.000 77.250 L 190.000 77.833 183.333 77.833 L 176.667 77.833 176.667 77.250 C 176.667 76.843,176.742 76.667,176.917 76.667 C 177.096 76.667,177.167 76.484,177.167 76.019 C 177.167 75.512,177.239 75.353,177.500 75.285 C 177.783 75.211,177.833 75.058,177.833 74.266 C 177.833 73.444,177.873 73.333,178.167 73.333 C 178.438 73.333,178.500 73.222,178.500 72.734 C 178.500 72.276,178.578 72.115,178.833 72.048 C 179.113 71.975,179.167 71.821,179.167 71.083 C 179.167 70.346,179.220 70.192,179.500 70.118 C 179.777 70.046,179.833 69.891,179.833 69.202 C 179.833 68.512,179.890 68.357,180.167 68.285 C 180.422 68.218,180.500 68.058,180.500 67.599 C 180.500 67.198,180.577 67.000,180.732 67.000 C 181.040 67.000,181.167 66.631,181.167 65.736 C 181.167 65.193,181.232 65.000,181.417 65.000 C 181.590 65.000,181.667 64.825,181.667 64.428 C 181.667 64.002,181.752 63.829,182.000 63.750 C 182.279 63.661,182.333 63.498,182.333 62.739 C 182.333 61.944,182.374 61.833,182.667 61.833 C 182.950 61.833,183.000 61.722,183.000 61.099 C 183.000 60.447,183.037 60.374,183.333 60.452 C 183.594 60.520,183.667 60.679,183.667 61.186 M231.167 61.833 C 231.167 62.907,231.215 63.167,231.417 63.167 C 231.569 63.167,231.667 63.322,231.667 63.563 C 231.667 64.313,231.876 65.000,232.104 65.000 C 232.260 65.000,232.333 65.212,232.333 65.667 C 232.333 66.222,232.389 66.333,232.667 66.333 C 232.959 66.333,233.000 66.444,233.000 67.239 C 233.000 67.998,233.054 68.161,233.333 68.250 C 233.581 68.329,233.667 68.502,233.667 68.928 C 233.667 69.389,233.731 69.500,234.000 69.500 C 234.294 69.500,234.333 69.611,234.333 70.432 C 234.333 71.224,234.383 71.378,234.667 71.452 C 234.928 71.520,235.000 71.679,235.000 72.186 C 235.000 72.650,235.071 72.833,235.250 72.833 C 235.420 72.833,235.501 73.006,235.502 73.375 C 235.506 74.167,235.674 74.667,235.936 74.667 C 236.093 74.667,236.167 74.875,236.167 75.320 C 236.167 76.134,236.301 76.500,236.601 76.500 C 236.761 76.500,236.833 76.708,236.833 77.167 C 236.833 77.722,236.889 77.833,237.167 77.833 C 237.460 77.833,237.500 77.944,237.500 78.766 C 237.500 79.558,237.550 79.711,237.833 79.785 C 238.086 79.851,238.167 80.012,238.167 80.452 C 238.167 80.891,238.247 81.052,238.500 81.118 C 238.781 81.192,238.833 81.346,238.833 82.103 C 238.833 82.889,238.875 83.000,239.167 83.000 C 239.460 83.000,239.500 83.111,239.500 83.917 C 239.500 84.620,239.558 84.833,239.750 84.833 C 239.926 84.833,240.000 85.011,240.000 85.432 C 240.000 85.891,240.078 86.052,240.333 86.118 C 240.609 86.191,240.667 86.346,240.667 87.018 C 240.667 87.650,240.741 87.877,241.000 88.039 C 241.226 88.180,241.333 88.427,241.333 88.806 C 241.333 89.224,241.417 89.386,241.667 89.452 C 241.948 89.525,242.000 89.679,242.000 90.436 C 242.000 91.222,242.041 91.333,242.333 91.333 C 242.611 91.333,242.667 91.444,242.667 92.000 C 242.667 92.556,242.722 92.667,243.000 92.667 C 243.293 92.667,243.333 92.778,243.333 93.583 C 243.333 94.267,243.394 94.500,243.571 94.500 C 243.735 94.500,243.846 94.789,243.926 95.430 C 243.994 95.975,244.136 96.396,244.271 96.448 C 244.402 96.498,244.500 96.773,244.500 97.090 C 244.500 97.498,244.588 97.672,244.833 97.750 C 245.108 97.837,245.167 98.002,245.167 98.694 C 245.167 99.391,245.222 99.546,245.500 99.618 C 245.761 99.687,245.833 99.846,245.833 100.353 C 245.833 100.889,245.891 101.000,246.167 101.000 C 246.460 101.000,246.500 101.111,246.500 101.932 C 246.500 102.724,246.450 102.878,246.167 102.952 C 245.919 103.016,245.833 103.179,245.833 103.583 C 245.833 103.988,245.748 104.150,245.500 104.215 C 245.245 104.282,245.167 104.442,245.167 104.901 C 245.167 105.389,245.105 105.500,244.833 105.500 C 244.611 105.500,244.500 105.611,244.500 105.833 C 244.500 106.017,244.396 106.167,244.269 106.167 C 244.136 106.167,243.990 106.416,243.928 106.750 C 243.862 107.099,243.721 107.333,243.576 107.333 C 243.442 107.333,243.333 107.483,243.333 107.667 C 243.333 107.938,243.222 108.000,242.734 108.000 C 242.276 108.000,242.115 108.078,242.048 108.333 C 241.971 108.629,241.821 108.667,240.731 108.667 C 239.611 108.667,239.500 108.697,239.500 109.000 C 239.500 109.306,239.389 109.333,238.167 109.333 C 236.944 109.333,236.833 109.306,236.833 109.000 C 236.833 108.707,236.722 108.667,235.917 108.667 L 235.000 108.667 235.000 114.083 L 235.000 119.500 239.417 119.500 C 243.722 119.500,243.833 119.492,243.833 119.167 C 243.833 118.861,243.944 118.833,245.167 118.833 C 246.241 118.833,246.500 118.785,246.500 118.583 C 246.500 118.394,246.705 118.333,247.349 118.333 C 248.058 118.333,248.212 118.278,248.285 118.000 C 248.351 117.747,248.512 117.667,248.952 117.667 C 249.391 117.667,249.552 117.586,249.618 117.333 C 249.683 117.085,249.846 117.000,250.258 117.000 C 250.664 117.000,250.839 116.912,250.917 116.667 C 250.975 116.483,251.137 116.333,251.277 116.333 C 251.417 116.333,251.570 116.183,251.618 116.000 C 251.666 115.817,251.809 115.667,251.936 115.667 C 252.063 115.667,252.167 115.517,252.167 115.333 C 252.167 115.111,252.278 115.000,252.500 115.000 C 252.685 115.000,252.833 114.889,252.833 114.750 C 252.833 114.611,252.981 114.500,253.167 114.500 C 253.389 114.500,253.500 114.389,253.500 114.167 C 253.500 113.944,253.611 113.833,253.833 113.833 C 254.056 113.833,254.167 113.722,254.167 113.500 C 254.167 113.306,254.278 113.167,254.432 113.167 C 254.578 113.167,254.737 113.017,254.785 112.833 C 254.833 112.650,254.975 112.500,255.101 112.500 C 255.239 112.500,255.372 112.235,255.436 111.833 C 255.516 111.331,255.619 111.167,255.855 111.167 C 256.100 111.167,256.167 111.042,256.167 110.583 C 256.167 110.176,256.242 110.000,256.417 110.000 C 256.554 110.000,256.667 109.859,256.667 109.686 C 256.667 109.512,256.816 109.333,257.000 109.285 C 257.253 109.219,257.333 109.058,257.333 108.618 C 257.333 108.179,257.414 108.018,257.667 107.952 C 257.944 107.879,258.000 107.724,258.000 107.035 C 258.000 106.346,258.056 106.191,258.333 106.118 C 258.586 106.052,258.667 105.891,258.667 105.452 C 258.667 105.012,258.747 104.851,259.000 104.785 C 259.255 104.718,259.333 104.558,259.333 104.099 C 259.333 103.700,259.410 103.500,259.564 103.500 C 259.826 103.500,259.994 103.000,259.998 102.208 C 259.999 101.839,260.080 101.667,260.250 101.667 C 260.431 101.667,260.500 101.481,260.500 101.000 C 260.500 100.444,260.556 100.333,260.833 100.333 C 261.109 100.333,261.167 100.222,261.167 99.686 C 261.167 99.179,261.239 99.020,261.500 98.952 C 261.778 98.879,261.833 98.724,261.833 98.016 C 261.833 97.278,261.877 97.167,262.167 97.167 C 262.443 97.167,262.500 97.056,262.500 96.519 C 262.500 96.012,262.572 95.853,262.833 95.785 C 263.089 95.718,263.167 95.558,263.167 95.099 C 263.167 94.698,263.243 94.500,263.399 94.500 C 263.697 94.500,263.833 94.135,263.833 93.339 C 263.833 92.846,263.907 92.686,264.167 92.618 C 264.422 92.552,264.500 92.391,264.500 91.932 C 264.500 91.511,264.574 91.333,264.750 91.333 C 264.931 91.333,265.000 91.148,265.000 90.667 C 265.000 90.111,265.056 90.000,265.333 90.000 C 265.626 90.000,265.667 89.889,265.667 89.083 C 265.667 88.278,265.707 88.167,266.000 88.167 C 266.278 88.167,266.333 88.056,266.333 87.500 C 266.333 86.944,266.389 86.833,266.667 86.833 C 266.943 86.833,267.000 86.722,267.000 86.186 C 267.000 85.679,267.072 85.520,267.333 85.452 C 267.610 85.379,267.667 85.224,267.667 84.535 C 267.667 83.846,267.723 83.691,268.000 83.618 C 268.255 83.552,268.333 83.391,268.333 82.932 C 268.333 82.511,268.407 82.333,268.583 82.333 C 268.759 82.333,268.833 82.156,268.833 81.734 C 268.833 81.276,268.911 81.115,269.167 81.048 C 269.448 80.975,269.500 80.821,269.500 80.064 C 269.500 79.278,269.541 79.167,269.833 79.167 C 270.111 79.167,270.167 79.056,270.167 78.500 C 270.167 77.944,270.222 77.833,270.500 77.833 C 270.776 77.833,270.833 77.722,270.833 77.186 C 270.833 76.679,270.906 76.520,271.167 76.452 C 271.445 76.379,271.500 76.224,271.500 75.516 C 271.500 74.778,271.544 74.667,271.833 74.667 C 272.111 74.667,272.167 74.556,272.167 74.000 C 272.167 73.444,272.222 73.333,272.500 73.333 C 272.768 73.333,272.833 73.222,272.833 72.768 C 272.833 72.419,272.929 72.166,273.083 72.106 C 273.264 72.037,273.333 71.754,273.333 71.089 C 273.333 70.278,273.374 70.167,273.667 70.167 C 273.944 70.167,274.000 70.056,274.000 69.500 C 274.000 68.944,274.056 68.833,274.333 68.833 C 274.601 68.833,274.667 68.722,274.667 68.269 C 274.667 67.846,274.750 67.684,275.000 67.618 C 275.283 67.544,275.333 67.391,275.333 66.599 C 275.333 65.778,275.373 65.667,275.667 65.667 C 275.934 65.667,276.000 65.556,276.000 65.103 C 276.000 64.679,276.083 64.517,276.333 64.452 C 276.589 64.385,276.667 64.224,276.667 63.766 C 276.667 63.344,276.741 63.167,276.917 63.167 C 277.118 63.167,277.167 62.907,277.167 61.833 L 277.167 60.500 270.833 60.500 C 264.611 60.500,264.500 60.506,264.500 60.833 C 264.500 61.056,264.389 61.167,264.167 61.167 C 263.891 61.167,263.833 61.278,263.833 61.814 C 263.833 62.321,263.761 62.480,263.500 62.548 C 263.217 62.622,263.167 62.776,263.167 63.568 C 263.167 64.389,263.127 64.500,262.833 64.500 C 262.566 64.500,262.500 64.611,262.500 65.064 C 262.500 65.488,262.417 65.649,262.167 65.715 C 261.911 65.782,261.833 65.942,261.833 66.401 C 261.833 66.802,261.757 67.000,261.601 67.000 C 261.306 67.000,261.167 67.365,261.167 68.140 C 261.167 68.573,261.069 68.814,260.833 68.961 C 260.621 69.094,260.500 69.350,260.500 69.668 C 260.500 70.000,260.417 70.167,260.250 70.167 C 260.071 70.167,260.000 70.350,260.000 70.814 C 260.000 71.321,259.928 71.480,259.667 71.548 C 259.390 71.621,259.333 71.776,259.333 72.465 C 259.333 73.154,259.277 73.309,259.000 73.382 C 258.747 73.448,258.667 73.609,258.667 74.048 C 258.667 74.488,258.586 74.649,258.333 74.715 C 258.050 74.789,258.000 74.942,258.000 75.734 C 258.000 76.556,257.960 76.667,257.667 76.667 C 257.397 76.667,257.333 76.778,257.333 77.250 C 257.333 77.637,257.255 77.833,257.101 77.833 C 256.835 77.833,256.667 78.187,256.667 78.746 C 256.667 78.958,256.554 79.174,256.417 79.227 C 256.236 79.296,256.167 79.579,256.167 80.245 C 256.167 81.056,256.126 81.167,255.833 81.167 C 255.563 81.167,255.500 81.278,255.500 81.750 C 255.500 82.222,255.437 82.333,255.167 82.333 C 254.891 82.333,254.833 82.444,254.833 82.981 C 254.833 83.488,254.761 83.647,254.500 83.715 C 254.222 83.788,254.167 83.942,254.167 84.640 C 254.167 85.331,254.108 85.496,253.833 85.583 C 253.650 85.642,253.500 85.797,253.500 85.928 C 253.500 86.059,253.350 86.167,253.167 86.167 C 252.874 86.167,252.833 86.056,252.833 85.250 C 252.833 84.444,252.793 84.333,252.500 84.333 C 252.207 84.333,252.167 84.222,252.167 83.411 C 252.167 82.746,252.097 82.463,251.917 82.394 C 251.779 82.341,251.667 82.128,251.667 81.920 C 251.667 81.185,251.456 80.500,251.229 80.500 C 251.073 80.500,251.000 80.288,251.000 79.833 C 251.000 79.278,250.944 79.167,250.667 79.167 C 250.375 79.167,250.333 79.056,250.333 78.269 C 250.333 77.512,250.281 77.359,250.000 77.285 C 249.717 77.211,249.667 77.058,249.667 76.266 C 249.667 75.444,249.627 75.333,249.333 75.333 C 249.040 75.333,249.000 75.222,249.000 74.417 C 249.000 73.611,248.960 73.500,248.667 73.500 C 248.389 73.500,248.333 73.389,248.333 72.833 C 248.333 72.352,248.264 72.167,248.083 72.167 C 247.899 72.167,247.833 71.974,247.833 71.430 C 247.833 70.536,247.706 70.167,247.399 70.167 C 247.231 70.167,247.167 69.932,247.167 69.318 C 247.167 68.609,247.112 68.454,246.833 68.382 C 246.551 68.308,246.500 68.154,246.500 67.382 C 246.500 66.609,246.449 66.455,246.167 66.382 C 245.914 66.316,245.833 66.154,245.833 65.715 C 245.833 65.276,245.753 65.114,245.500 65.048 C 245.219 64.975,245.167 64.821,245.167 64.064 C 245.167 63.278,245.125 63.167,244.833 63.167 C 244.540 63.167,244.500 63.056,244.500 62.234 C 244.500 61.442,244.450 61.289,244.167 61.215 C 243.982 61.167,243.833 60.988,243.833 60.814 C 243.833 60.512,243.591 60.500,237.500 60.500 L 231.167 60.500 231.167 61.833 M100.542 74.110 C 100.427 74.157,100.333 74.301,100.333 74.431 C 100.333 74.560,100.183 74.667,100.000 74.667 C 99.778 74.667,99.667 74.778,99.667 75.000 C 99.667 75.222,99.556 75.333,99.333 75.333 C 99.056 75.333,99.000 75.444,99.000 76.000 C 99.000 76.556,98.944 76.667,98.667 76.667 C 98.444 76.667,98.333 76.778,98.333 77.000 C 98.333 77.185,98.222 77.333,98.083 77.333 C 97.909 77.333,97.833 77.509,97.833 77.917 C 97.833 78.389,97.770 78.500,97.500 78.500 C 97.222 78.500,97.167 78.611,97.167 79.167 C 97.167 79.722,97.111 79.833,96.833 79.833 C 96.556 79.833,96.500 79.944,96.500 80.500 C 96.500 81.056,96.444 81.167,96.167 81.167 C 95.983 81.167,95.833 81.274,95.833 81.405 C 95.833 81.537,95.683 81.692,95.500 81.750 C 95.255 81.828,95.167 82.002,95.167 82.408 C 95.167 82.821,95.082 82.983,94.833 83.048 C 94.578 83.115,94.500 83.276,94.500 83.734 C 94.500 84.154,94.426 84.333,94.252 84.333 C 94.091 84.333,93.966 84.569,93.897 85.000 C 93.833 85.402,93.700 85.667,93.562 85.667 C 93.221 85.667,93.233 88.592,93.574 88.723 C 93.707 88.774,93.865 89.082,93.926 89.408 C 93.990 89.749,94.135 90.000,94.269 90.000 C 94.423 90.000,94.500 90.199,94.500 90.599 C 94.500 91.058,94.578 91.218,94.833 91.285 C 95.069 91.347,95.167 91.512,95.167 91.851 C 95.167 92.150,95.292 92.409,95.500 92.539 C 95.707 92.668,95.833 92.927,95.833 93.222 C 95.833 93.558,95.932 93.724,96.167 93.785 C 96.351 93.833,96.500 94.012,96.500 94.186 C 96.500 94.389,96.618 94.500,96.833 94.500 C 97.111 94.500,97.167 94.611,97.167 95.167 C 97.167 95.722,97.222 95.833,97.500 95.833 C 97.778 95.833,97.833 95.944,97.833 96.500 C 97.833 96.981,97.903 97.167,98.083 97.167 C 98.252 97.167,98.333 97.335,98.333 97.682 C 98.333 98.058,98.424 98.222,98.667 98.285 C 98.919 98.351,99.000 98.512,99.000 98.952 C 99.000 99.391,99.081 99.552,99.333 99.618 C 99.586 99.684,99.667 99.846,99.667 100.285 C 99.667 100.724,99.747 100.886,100.000 100.952 C 100.250 101.017,100.333 101.179,100.333 101.603 C 100.333 102.056,100.399 102.167,100.667 102.167 C 100.889 102.167,101.000 102.278,101.000 102.500 C 101.000 102.722,101.111 102.833,101.333 102.833 C 101.611 102.833,101.667 102.944,101.667 103.500 C 101.667 103.963,101.739 104.167,101.902 104.167 C 102.047 104.167,102.181 104.423,102.250 104.833 C 102.319 105.243,102.453 105.500,102.598 105.500 C 102.756 105.500,102.833 105.692,102.833 106.083 C 102.833 106.556,102.897 106.667,103.167 106.667 C 103.438 106.667,103.500 106.778,103.500 107.266 C 103.500 107.724,103.578 107.885,103.833 107.952 C 104.086 108.018,104.167 108.179,104.167 108.618 C 104.167 109.058,104.247 109.219,104.500 109.285 C 104.750 109.351,104.833 109.512,104.833 109.936 C 104.833 110.389,104.899 110.500,105.167 110.500 C 105.444 110.500,105.500 110.611,105.500 111.167 C 105.500 111.722,105.556 111.833,105.833 111.833 C 106.056 111.833,106.167 111.944,106.167 112.167 C 106.167 112.352,106.278 112.500,106.417 112.500 C 106.593 112.500,106.667 112.678,106.667 113.099 C 106.667 113.558,106.745 113.718,107.000 113.785 C 107.250 113.851,107.333 114.012,107.333 114.436 C 107.333 114.889,107.399 115.000,107.667 115.000 C 107.944 115.000,108.000 115.111,108.000 115.667 C 108.000 116.222,108.056 116.333,108.333 116.333 C 108.605 116.333,108.667 116.444,108.667 116.932 C 108.667 117.391,108.745 117.552,109.000 117.618 C 109.250 117.684,109.333 117.846,109.333 118.269 C 109.333 118.722,109.399 118.833,109.667 118.833 C 109.889 118.833,110.000 118.944,110.000 119.167 C 110.000 119.435,110.111 119.500,110.572 119.500 C 110.998 119.500,111.171 119.585,111.250 119.833 C 111.353 120.159,111.502 120.167,118.011 120.167 C 124.556 120.167,124.667 120.161,124.667 119.833 C 124.667 119.556,124.778 119.500,125.333 119.500 C 125.889 119.500,126.000 119.444,126.000 119.167 C 126.000 118.944,126.111 118.833,126.333 118.833 C 126.517 118.833,126.667 118.729,126.667 118.601 C 126.667 118.473,126.779 118.326,126.917 118.273 C 127.124 118.194,127.167 117.745,127.167 115.672 C 127.167 113.556,127.128 113.167,126.917 113.167 C 126.763 113.167,126.667 113.011,126.667 112.764 C 126.667 112.188,126.501 111.833,126.232 111.833 C 126.084 111.833,126.000 111.647,126.000 111.318 C 126.000 110.942,125.909 110.778,125.667 110.715 C 125.414 110.649,125.333 110.488,125.333 110.048 C 125.333 109.609,125.253 109.448,125.000 109.382 C 124.816 109.333,124.667 109.154,124.667 108.981 C 124.667 108.778,124.549 108.667,124.333 108.667 C 124.056 108.667,124.000 108.556,124.000 108.000 C 124.000 107.444,123.944 107.333,123.667 107.333 C 123.397 107.333,123.333 107.222,123.333 106.750 C 123.333 106.343,123.258 106.167,123.083 106.167 C 122.930 106.167,122.833 106.011,122.833 105.764 C 122.833 105.188,122.668 104.833,122.399 104.833 C 122.262 104.833,122.167 104.662,122.167 104.417 C 122.167 104.188,122.017 103.850,121.833 103.667 C 121.650 103.483,121.500 103.139,121.500 102.901 C 121.500 102.609,121.392 102.441,121.167 102.382 C 120.982 102.333,120.833 102.154,120.833 101.981 C 120.833 101.778,120.715 101.667,120.500 101.667 C 120.222 101.667,120.167 101.556,120.167 101.000 C 120.167 100.444,120.111 100.333,119.833 100.333 C 119.556 100.333,119.500 100.222,119.500 99.667 C 119.500 99.111,119.444 99.000,119.167 99.000 C 118.897 99.000,118.833 98.889,118.833 98.417 C 118.833 98.009,118.758 97.833,118.583 97.833 C 118.430 97.833,118.333 97.677,118.333 97.430 C 118.333 96.855,118.168 96.500,117.899 96.500 C 117.752 96.500,117.667 96.316,117.667 96.001 C 117.667 95.683,117.546 95.427,117.333 95.295 C 117.127 95.166,117.000 94.906,117.000 94.611 C 117.000 94.276,116.902 94.110,116.667 94.048 C 116.482 94.000,116.333 93.821,116.333 93.647 C 116.333 93.444,116.215 93.333,116.000 93.333 C 115.722 93.333,115.667 93.222,115.667 92.667 C 115.667 92.111,115.611 92.000,115.333 92.000 C 115.056 92.000,115.000 91.889,115.000 91.333 C 115.000 90.852,114.931 90.667,114.750 90.667 C 114.582 90.667,114.500 90.498,114.500 90.151 C 114.500 89.776,114.409 89.612,114.167 89.548 C 113.914 89.482,113.833 89.321,113.833 88.882 C 113.833 88.442,113.753 88.281,113.500 88.215 C 113.264 88.153,113.167 87.988,113.167 87.649 C 113.167 87.350,113.041 87.091,112.833 86.961 C 112.650 86.847,112.500 86.621,112.500 86.460 C 112.500 86.278,112.374 86.167,112.167 86.167 C 111.897 86.167,111.833 86.056,111.833 85.583 C 111.833 85.111,111.770 85.000,111.500 85.000 C 111.222 85.000,111.167 84.889,111.167 84.333 C 111.167 83.778,111.111 83.667,110.833 83.667 C 110.556 83.667,110.500 83.556,110.500 83.000 C 110.500 82.519,110.431 82.333,110.250 82.333 C 110.082 82.333,110.000 82.165,110.000 81.818 C 110.000 81.442,109.909 81.278,109.667 81.215 C 109.455 81.160,109.333 80.988,109.333 80.744 C 109.333 80.187,109.165 79.833,108.899 79.833 C 108.743 79.833,108.667 79.635,108.667 79.234 C 108.667 78.776,108.589 78.615,108.333 78.548 C 108.149 78.500,108.000 78.321,108.000 78.147 C 108.000 77.944,107.882 77.833,107.667 77.833 C 107.397 77.833,107.333 77.722,107.333 77.250 C 107.333 76.778,107.270 76.667,107.000 76.667 C 106.722 76.667,106.667 76.556,106.667 76.000 C 106.667 75.532,106.595 75.333,106.428 75.333 C 106.297 75.333,106.142 75.183,106.083 75.000 C 106.005 74.752,105.831 74.667,105.405 74.667 C 104.944 74.667,104.833 74.602,104.833 74.333 C 104.833 74.008,101.256 73.822,100.542 74.110 " stroke="none" fill="#042c3c" fill-rule="evenodd"></path><path id="path1" d="" stroke="none" fill="#082c3c" fill-rule="evenodd"></path><path id="path2" d="" stroke="none" fill="#082c3c" fill-rule="evenodd"></path><path id="path3" d="" stroke="none" fill="#082c3c" fill-rule="evenodd"></path><path id="path4" d="" stroke="none" fill="#082c3c" fill-rule="evenodd"></path></g></svg>